<svg xmlns="http://www.w3.org/2000/svg" version="1.1" xmlns:xlink="http://www.w3.org/1999/xlink" xmlns:svgjs="http://svgjs.dev/svgjs" viewBox="0 0 12.534790714077952 3.3362943183731"><g transform="matrix(1,0,0,1,0.5150836977783602,0.97674090918655)"><rect width="12.534790714077952" height="12.534790714077952" x="-0.5150836977783602" y="-5.575989107038976" fill="#fffef5"></rect><g><path d=" M 0.525146484375 1.232666015625 Q 0.54931640625 1.232666015625 0.5643310546875 1.2249755859375 Q 0.579345703125 1.21728515625 0.58740234375 1.2030029296875 Q 0.595458984375 1.188720703125 0.5980224609375 1.1678466796875 Q 0.6005859375 1.14697265625 0.6005859375 1.12060546875 Q 0.6005859375 1.097900390625 0.599853515625 1.062744140625 Q 0.59912109375 1.027587890625 0.598388671875 0.993896484375 Q 0.596923828125 0.954345703125 0.59619140625 0.911865234375 Q 0.5859375 0.910400390625 0.5767822265625 0.9093017578125 Q 0.567626953125 0.908203125 0.558837890625 0.908203125 Q 0.521484375 0.908203125 0.4962158203125 0.9232177734375 Q 0.470947265625 0.938232421875 0.45556640625 0.9649658203125 Q 0.440185546875 0.99169921875 0.4339599609375 1.0279541015625 Q 0.427734375 1.064208984375 0.427734375 1.106689453125 Q 0.427734375 1.13232421875 0.4306640625 1.1553955078125 Q 0.43359375 1.178466796875 0.44384765625 1.1956787109375 Q 0.4541015625 1.212890625 0.4735107421875 1.2227783203125 Q 0.492919921875 1.232666015625 0.525146484375 1.232666015625 M 0.878173828125 1.3828125 Q 0.8408203125 1.3828125 0.8038330078125 1.3787841796875 Q 0.766845703125 1.374755859375 0.7335205078125 1.3623046875 Q 0.7001953125 1.349853515625 0.67236328125 1.326416015625 Q 0.64453125 1.302978515625 0.624755859375 1.26416015625 Q 0.610107421875 1.298583984375 0.5775146484375 1.32421875 Q 0.544921875 1.349853515625 0.5035400390625 1.3670654296875 Q 0.462158203125 1.38427734375 0.4163818359375 1.3927001953125 Q 0.37060546875 1.401123046875 0.328857421875 1.401123046875 Q 0.2548828125 1.401123046875 0.19921875 1.383544921875 Q 0.1435546875 1.365966796875 0.10546875 1.3333740234375 Q 0.0673828125 1.30078125 0.04833984375 1.25537109375 Q 0.029296875 1.2099609375 0.029296875 1.153564453125 Q 0.029296875 1.0869140625 0.0516357421875 1.0272216796875 Q 0.073974609375 0.967529296875 0.1278076171875 0.9228515625 Q 0.181640625 0.878173828125 0.271728515625 0.8521728515625 Q 0.36181640625 0.826171875 0.497314453125 0.826171875 L 0.59765625 0.826171875 Q 0.59765625 0.744873046875 0.5921630859375 0.69140625 Q 0.586669921875 0.637939453125 0.574951171875 0.6064453125 Q 0.563232421875 0.574951171875 0.545654296875 0.5625 Q 0.528076171875 0.550048828125 0.503173828125 0.550048828125 Q 0.475341796875 0.550048828125 0.4566650390625 0.56689453125 Q 0.43798828125 0.583740234375 0.4266357421875 0.6156005859375 Q 0.415283203125 0.6474609375 0.4105224609375 0.6925048828125 Q 0.40576171875 0.737548828125 0.40576171875 0.794677734375 Q 0.374267578125 0.794677734375 0.3394775390625 0.7935791015625 Q 0.3046875 0.79248046875 0.2706298828125 0.7880859375 Q 0.236572265625 0.78369140625 0.2061767578125 0.7745361328125 Q 0.17578125 0.765380859375 0.15234375 0.7496337890625 Q 0.12890625 0.73388671875 0.114990234375 0.709716796875 Q 0.10107421875 0.685546875 0.10107421875 0.651123046875 Q 0.10107421875 0.602783203125 0.1263427734375 0.5595703125 Q 0.151611328125 0.516357421875 0.2039794921875 0.4837646484375 Q 0.25634765625 0.451171875 0.3369140625 0.4317626953125 Q 0.41748046875 0.412353515625 0.52880859375 0.412353515625 Q 0.658447265625 0.412353515625 0.752197265625 0.438720703125 Q 0.845947265625 0.465087890625 0.9063720703125 0.517822265625 Q 0.966796875 0.570556640625 0.9957275390625 0.6507568359375 Q 1.024658203125 0.73095703125 1.024658203125 0.838623046875 L 1.024658203125 1.097900390625 Q 1.024658203125 1.12939453125 1.0330810546875 1.14697265625 Q 1.04150390625 1.16455078125 1.0535888671875 1.1737060546875 Q 1.065673828125 1.182861328125 1.080322265625 1.1865234375 Q 1.094970703125 1.190185546875 1.1070556640625 1.1942138671875 Q 1.119140625 1.1982421875 1.1275634765625 1.2052001953125 Q 1.135986328125 1.212158203125 1.135986328125 1.228271484375 Q 1.135986328125 1.301513671875 1.0704345703125 1.3421630859375 Q 1.0048828125 1.3828125 0.878173828125 1.3828125 M 1.982666015625 1.072265625 Q 1.982666015625 1.105224609375 1.991455078125 1.12353515625 Q 2.000244140625 1.141845703125 2.013427734375 1.1513671875 Q 2.026611328125 1.160888671875 2.0419921875 1.16455078125 Q 2.057373046875 1.168212890625 2.070556640625 1.172607421875 Q 2.083740234375 1.177001953125 2.092529296875 1.1846923828125 Q 2.101318359375 1.1923828125 2.101318359375 1.2099609375 Q 2.101318359375 1.301513671875 2.0068359375 1.3421630859375 Q 1.912353515625 1.3828125 1.733642578125 1.3828125 Q 1.647216796875 1.3828125 1.5802001953125 1.3729248046875 Q 1.51318359375 1.363037109375 1.4674072265625 1.3421630859375 Q 1.421630859375 1.3212890625 1.3978271484375 1.288330078125 Q 1.3740234375 1.25537109375 1.3740234375 1.2099609375 Q 1.3740234375 1.1923828125 1.3828125 1.1846923828125 Q 1.3916015625 1.177001953125 1.4044189453125 1.1729736328125 Q 1.417236328125 1.1689453125 1.4322509765625 1.165283203125 Q 1.447265625 1.16162109375 1.4600830078125 1.1524658203125 Q 1.472900390625 1.143310546875 1.481689453125 1.125732421875 Q 1.490478515625 1.108154296875 1.490478515625 1.0751953125 L 1.490478515625 0.37353515625 L 1.408447265625 0.37646484375 L 1.3798828125 0.49365234375 Q 1.3681640625 0.533203125 1.351318359375 0.560302734375 Q 1.33447265625 0.58740234375 1.314697265625 0.6046142578125 Q 1.294921875 0.621826171875 1.27294921875 0.6295166015625 Q 1.2509765625 0.63720703125 1.228271484375 0.63720703125 Q 1.20263671875 0.63720703125 1.1802978515625 0.62841796875 Q 1.157958984375 0.61962890625 1.1414794921875 0.603515625 Q 1.125 0.58740234375 1.1158447265625 0.56396484375 Q 1.106689453125 0.54052734375 1.106689453125 0.51123046875 Q 1.106689453125 0.46728515625 1.1195068359375 0.4156494140625 Q 1.13232421875 0.364013671875 1.1583251953125 0.3197021484375 Q 1.184326171875 0.275390625 1.223876953125 0.2457275390625 Q 1.263427734375 0.216064453125 1.31689453125 0.216064453125 L 2.156982421875 0.216064453125 Q 2.21044921875 0.216064453125 2.2496337890625 0.245361328125 Q 2.288818359375 0.274658203125 2.3148193359375 0.3189697265625 Q 2.3408203125 0.36328125 2.3536376953125 0.41455078125 Q 2.366455078125 0.4658203125 2.366455078125 0.509765625 Q 2.366455078125 0.5390625 2.3572998046875 0.5625 Q 2.34814453125 0.5859375 2.33203125 0.60205078125 Q 2.31591796875 0.6181640625 2.2935791015625 0.626953125 Q 2.271240234375 0.6357421875 2.24560546875 0.6357421875 Q 2.222900390625 0.6357421875 2.2001953125 0.62841796875 Q 2.177490234375 0.62109375 2.156982421875 0.6038818359375 Q 2.136474609375 0.586669921875 2.1199951171875 0.5592041015625 Q 2.103515625 0.53173828125 2.093994140625 0.491455078125 L 2.0654296875 0.375 L 1.982666015625 0.3720703125 L 1.982666015625 1.072265625 M 3.029296875 1.072265625 Q 3.029296875 1.105224609375 3.0380859375 1.12353515625 Q 3.046875 1.141845703125 3.06005859375 1.1513671875 Q 3.0732421875 1.160888671875 3.088623046875 1.16455078125 Q 3.10400390625 1.168212890625 3.1171875 1.172607421875 Q 3.13037109375 1.177001953125 3.13916015625 1.1846923828125 Q 3.14794921875 1.1923828125 3.14794921875 1.2099609375 Q 3.14794921875 1.301513671875 3.053466796875 1.3421630859375 Q 2.958984375 1.3828125 2.7802734375 1.3828125 Q 2.69384765625 1.3828125 2.6268310546875 1.3729248046875 Q 2.559814453125 1.363037109375 2.5140380859375 1.3421630859375 Q 2.46826171875 1.3212890625 2.4444580078125 1.288330078125 Q 2.420654296875 1.25537109375 2.420654296875 1.2099609375 Q 2.420654296875 1.1923828125 2.429443359375 1.1846923828125 Q 2.438232421875 1.177001953125 2.4510498046875 1.1729736328125 Q 2.4638671875 1.1689453125 2.4788818359375 1.165283203125 Q 2.493896484375 1.16162109375 2.5067138671875 1.1524658203125 Q 2.51953125 1.143310546875 2.5283203125 1.125732421875 Q 2.537109375 1.108154296875 2.537109375 1.0751953125 L 2.537109375 0.52294921875 Q 2.537109375 0.49072265625 2.5283203125 0.4727783203125 Q 2.51953125 0.454833984375 2.5067138671875 0.4456787109375 Q 2.493896484375 0.4365234375 2.4788818359375 0.432861328125 Q 2.4638671875 0.42919921875 2.4510498046875 0.4251708984375 Q 2.438232421875 0.421142578125 2.429443359375 0.4134521484375 Q 2.420654296875 0.40576171875 2.420654296875 0.38818359375 Q 2.420654296875 0.3427734375 2.4444580078125 0.3101806640625 Q 2.46826171875 0.277587890625 2.5140380859375 0.2567138671875 Q 2.559814453125 0.23583984375 2.6268310546875 0.2259521484375 Q 2.69384765625 0.216064453125 2.7802734375 0.216064453125 Q 2.86962890625 0.216064453125 2.9384765625 0.2259521484375 Q 3.00732421875 0.23583984375 3.0538330078125 0.2567138671875 Q 3.100341796875 0.277587890625 3.1241455078125 0.3101806640625 Q 3.14794921875 0.3427734375 3.14794921875 0.38818359375 Q 3.14794921875 0.40576171875 3.13916015625 0.4134521484375 Q 3.13037109375 0.421142578125 3.1175537109375 0.4251708984375 Q 3.104736328125 0.42919921875 3.08935546875 0.432861328125 Q 3.073974609375 0.4365234375 3.0611572265625 0.4456787109375 Q 3.04833984375 0.454833984375 3.03955078125 0.4727783203125 Q 3.03076171875 0.49072265625 3.03076171875 0.52294921875 L 3.029296875 1.072265625 M 3.582275390625 0.814453125 Q 3.5771484375 0.810791015625 3.57421875 0.810791015625 Q 3.567626953125 0.810791015625 3.567626953125 0.818115234375 Q 3.567626953125 0.8203125 3.568359375 0.82177734375 L 3.568359375 1.072265625 Q 3.568359375 1.105224609375 3.5771484375 1.12353515625 Q 3.5859375 1.141845703125 3.59912109375 1.1513671875 Q 3.6123046875 1.160888671875 3.627685546875 1.16455078125 Q 3.64306640625 1.168212890625 3.65625 1.172607421875 Q 3.66943359375 1.177001953125 3.67822265625 1.1846923828125 Q 3.68701171875 1.1923828125 3.68701171875 1.2099609375 Q 3.68701171875 1.25537109375 3.6668701171875 1.288330078125 Q 3.646728515625 1.3212890625 3.615234375 1.3421630859375 Q 3.583740234375 1.363037109375 3.5445556640625 1.3729248046875 Q 3.50537109375 1.3828125 3.468017578125 1.3828125 Q 3.424072265625 1.3828125 3.3826904296875 1.3729248046875 Q 3.34130859375 1.363037109375 3.3094482421875 1.3421630859375 Q 3.277587890625 1.3212890625 3.2581787109375 1.288330078125 Q 3.23876953125 1.25537109375 3.23876953125 1.2099609375 Q 3.23876953125 1.1923828125 3.24755859375 1.1846923828125 Q 3.25634765625 1.177001953125 3.2691650390625 1.1729736328125 Q 3.281982421875 1.1689453125 3.2969970703125 1.165283203125 Q 3.31201171875 1.16162109375 3.3248291015625 1.1524658203125 Q 3.337646484375 1.143310546875 3.346435546875 1.125732421875 Q 3.355224609375 1.108154296875 3.355224609375 1.0751953125 L 3.355224609375 0.52294921875 Q 3.355224609375 0.49072265625 3.346435546875 0.4727783203125 Q 3.337646484375 0.454833984375 3.3248291015625 0.4456787109375 Q 3.31201171875 0.4365234375 3.2969970703125 0.432861328125 Q 3.281982421875 0.42919921875 3.2691650390625 0.4251708984375 Q 3.25634765625 0.421142578125 3.24755859375 0.4134521484375 Q 3.23876953125 0.40576171875 3.23876953125 0.38818359375 Q 3.23876953125 0.3427734375 3.257080078125 0.3101806640625 Q 3.275390625 0.277587890625 3.3072509765625 0.2567138671875 Q 3.339111328125 0.23583984375 3.38232421875 0.2259521484375 Q 3.425537109375 0.216064453125 3.475341796875 0.216064453125 Q 3.513427734375 0.216064453125 3.5408935546875 0.2222900390625 Q 3.568359375 0.228515625 3.5928955078125 0.2427978515625 Q 3.617431640625 0.257080078125 3.64453125 0.28125 Q 3.671630859375 0.305419921875 3.709716796875 0.340576171875 L 4.12939453125 0.731689453125 Q 4.130859375 0.733154296875 4.1334228515625 0.734619140625 Q 4.135986328125 0.736083984375 4.1396484375 0.736083984375 Q 4.14404296875 0.736083984375 4.1480712890625 0.7320556640625 Q 4.152099609375 0.72802734375 4.152099609375 0.715576171875 L 4.152099609375 0.526611328125 Q 4.152099609375 0.492919921875 4.143310546875 0.474609375 Q 4.134521484375 0.456298828125 4.121337890625 0.44677734375 Q 4.108154296875 0.437255859375 4.0927734375 0.43359375 Q 4.077392578125 0.429931640625 4.064208984375 0.425537109375 Q 4.051025390625 0.421142578125 4.042236328125 0.4134521484375 Q 4.033447265625 0.40576171875 4.033447265625 0.38818359375 Q 4.033447265625 0.3427734375 4.0535888671875 0.3101806640625 Q 4.07373046875 0.277587890625 4.105224609375 0.2567138671875 Q 4.13671875 0.23583984375 4.1759033203125 0.2259521484375 Q 4.215087890625 0.216064453125 4.25244140625 0.216064453125 Q 4.29638671875 0.216064453125 4.3377685546875 0.2259521484375 Q 4.379150390625 0.23583984375 4.4110107421875 0.2567138671875 Q 4.44287109375 0.277587890625 4.4622802734375 0.3101806640625 Q 4.481689453125 0.3427734375 4.481689453125 0.38818359375 Q 4.481689453125 0.40576171875 4.4732666015625 0.4134521484375 Q 4.46484375 0.421142578125 4.4520263671875 0.4251708984375 Q 4.439208984375 0.42919921875 4.4241943359375 0.432861328125 Q 4.4091796875 0.4365234375 4.3963623046875 0.4456787109375 Q 4.383544921875 0.454833984375 4.3751220703125 0.4727783203125 Q 4.36669921875 0.49072265625 4.36669921875 0.52294921875 L 4.36669921875 1.225341796875 Q 4.36669921875 1.273681640625 4.358642578125 1.304443359375 Q 4.3505859375 1.335205078125 4.3355712890625 1.3524169921875 Q 4.320556640625 1.36962890625 4.2996826171875 1.376220703125 Q 4.27880859375 1.3828125 4.25390625 1.3828125 Q 4.236328125 1.3828125 4.21728515625 1.37548828125 Q 4.1982421875 1.3681640625 4.177001953125 1.3538818359375 Q 4.15576171875 1.339599609375 4.130126953125 1.318359375 Q 4.1044921875 1.297119140625 4.07373046875 1.27001953125 L 3.582275390625 0.814453125 M 5.431640625 0.75732421875 Q 5.431640625 0.67822265625 5.423583984375 0.6064453125 Q 5.41552734375 0.53466796875 5.39794921875 0.479736328125 Q 5.38037109375 0.4248046875 5.351806640625 0.3922119140625 Q 5.3232421875 0.359619140625 5.2822265625 0.359619140625 Q 5.25146484375 0.359619140625 5.2327880859375 0.3709716796875 Q 5.214111328125 0.38232421875 5.20458984375 0.4010009765625 Q 5.195068359375 0.419677734375 5.192138671875 0.444580078125 Q 5.189208984375 0.469482421875 5.189208984375 0.49658203125 L 5.189208984375 1.07666015625 Q 5.189208984375 1.103759765625 5.192138671875 1.128662109375 Q 5.195068359375 1.153564453125 5.20458984375 1.1722412109375 Q 5.214111328125 1.19091796875 5.2327880859375 1.2022705078125 Q 5.25146484375 1.213623046875 5.2822265625 1.213623046875 Q 5.3232421875 1.213623046875 5.351806640625 1.1806640625 Q 5.38037109375 1.147705078125 5.39794921875 1.0880126953125 Q 5.41552734375 1.0283203125 5.423583984375 0.944091796875 Q 5.431640625 0.85986328125 5.431640625 0.75732421875 M 5.2822265625 0.216064453125 Q 5.40087890625 0.216064453125 5.4942626953125 0.236572265625 Q 5.587646484375 0.257080078125 5.6583251953125 0.293701171875 Q 5.72900390625 0.330322265625 5.7784423828125 0.3812255859375 Q 5.827880859375 0.43212890625 5.8590087890625 0.4932861328125 Q 5.89013671875 0.554443359375 5.904052734375 0.623291015625 Q 5.91796875 0.692138671875 5.91796875 0.7646484375 Q 5.91796875 0.8466796875 5.906982421875 0.9246826171875 Q 5.89599609375 1.002685546875 5.867431640625 1.0711669921875 Q 5.8388671875 1.1396484375 5.7890625 1.1971435546875 Q 5.7392578125 1.254638671875 5.6619873046875 1.295654296875 Q 5.584716796875 1.336669921875 5.4759521484375 1.3597412109375 Q 5.3671875 1.3828125 5.220703125 1.3828125 L 4.9248046875 1.3828125 Q 4.83837890625 1.3828125 4.7713623046875 1.3729248046875 Q 4.704345703125 1.363037109375 4.6585693359375 1.3421630859375 Q 4.61279296875 1.3212890625 4.5889892578125 1.288330078125 Q 4.565185546875 1.25537109375 4.565185546875 1.2099609375 Q 4.565185546875 1.1923828125 4.573974609375 1.1846923828125 Q 4.582763671875 1.177001953125 4.5955810546875 1.1729736328125 Q 4.6083984375 1.1689453125 4.6234130859375 1.165283203125 Q 4.638427734375 1.16162109375 4.6512451171875 1.1524658203125 Q 4.6640625 1.143310546875 4.6728515625 1.125732421875 Q 4.681640625 1.108154296875 4.681640625 1.0751953125 L 4.681640625 0.521484375 Q 4.681640625 0.4892578125 4.6728515625 0.4713134765625 Q 4.6640625 0.453369140625 4.6512451171875 0.4442138671875 Q 4.638427734375 0.43505859375 4.6234130859375 0.431396484375 Q 4.6083984375 0.427734375 4.5955810546875 0.4237060546875 Q 4.582763671875 0.419677734375 4.573974609375 0.4119873046875 Q 4.565185546875 0.404296875 4.565185546875 0.38671875 Q 4.565185546875 0.34130859375 4.5889892578125 0.3087158203125 Q 4.61279296875 0.276123046875 4.6585693359375 0.255615234375 Q 4.704345703125 0.235107421875 4.7713623046875 0.2255859375 Q 4.83837890625 0.216064453125 4.9248046875 0.216064453125 L 5.2822265625 0.216064453125 M 6.54638671875 1.100830078125 Q 6.54638671875 1.130859375 6.554443359375 1.147705078125 Q 6.5625 1.16455078125 6.57421875 1.1729736328125 Q 6.5859375 1.181396484375 6.6002197265625 1.1846923828125 Q 6.614501953125 1.18798828125 6.626220703125 1.191650390625 Q 6.637939453125 1.1953125 6.64599609375 1.2022705078125 Q 6.654052734375 1.209228515625 6.654052734375 1.225341796875 Q 6.654052734375 1.308837890625 6.567626953125 1.3458251953125 Q 6.481201171875 1.3828125 6.31787109375 1.3828125 Q 6.239501953125 1.3828125 6.1787109375 1.3740234375 Q 6.117919921875 1.365234375 6.076171875 1.3458251953125 Q 6.034423828125 1.326416015625 6.0128173828125 1.2967529296875 Q 5.9912109375 1.26708984375 5.9912109375 1.225341796875 Q 5.9912109375 1.209228515625 5.9989013671875 1.2022705078125 Q 6.006591796875 1.1953125 6.0186767578125 1.191650390625 Q 6.03076171875 1.18798828125 6.0443115234375 1.18505859375 Q 6.057861328125 1.18212890625 6.0699462890625 1.1737060546875 Q 6.08203125 1.165283203125 6.0897216796875 1.1495361328125 Q 6.097412109375 1.1337890625 6.097412109375 1.103759765625 L 6.097412109375 0.280517578125 Q 6.097412109375 0.25048828125 6.0897216796875 0.2347412109375 Q 6.08203125 0.218994140625 6.0699462890625 0.2105712890625 Q 6.057861328125 0.2021484375 6.0443115234375 0.19921875 Q 6.03076171875 0.1962890625 6.0186767578125 0.192626953125 Q 6.006591796875 0.18896484375 5.9989013671875 0.1820068359375 Q 5.9912109375 0.175048828125 5.9912109375 0.158935546875 Q 5.9912109375 0.1171875 6.0128173828125 0.0875244140625 Q 6.034423828125 0.057861328125 6.076171875 0.0384521484375 Q 6.117919921875 0.01904296875 6.1787109375 0.01025390625 Q 6.239501953125 0.00146484375 6.31787109375 0.00146484375 Q 6.39697265625 0.00146484375 6.4423828125 0.009521484375 Q 6.48779296875 0.017578125 6.5108642578125 0.0369873046875 Q 6.533935546875 0.056396484375 6.5401611328125 0.08935546875 Q 6.54638671875 0.122314453125 6.54638671875 0.172119140625 L 6.54638671875 1.100830078125 M 6.853271484375 0.181640625 Q 6.853271484375 0.14501953125 6.8660888671875 0.1175537109375 Q 6.87890625 0.090087890625 6.8990478515625 0.0699462890625 Q 6.919189453125 0.0498046875 6.9451904296875 0.0362548828125 Q 6.97119140625 0.022705078125 6.99755859375 0.0146484375 Q 7.02392578125 0.006591796875 7.0484619140625 0.0032958984375 Q 7.072998046875 0 7.09130859375 0 Q 7.111083984375 0 7.1363525390625 0.0032958984375 Q 7.16162109375 0.006591796875 7.18798828125 0.0146484375 Q 7.21435546875 0.022705078125 7.239990234375 0.0362548828125 Q 7.265625 0.0498046875 7.2857666015625 0.0699462890625 Q 7.305908203125 0.090087890625 7.3179931640625 0.1175537109375 Q 7.330078125 0.14501953125 7.330078125 0.181640625 Q 7.330078125 0.217529296875 7.3179931640625 0.245361328125 Q 7.305908203125 0.273193359375 7.2857666015625 0.29296875 Q 7.265625 0.312744140625 7.239990234375 0.3262939453125 Q 7.21435546875 0.33984375 7.18798828125 0.347900390625 Q 7.16162109375 0.35595703125 7.1363525390625 0.3592529296875 Q 7.111083984375 0.362548828125 7.09130859375 0.362548828125 Q 7.072998046875 0.362548828125 7.0484619140625 0.3592529296875 Q 7.02392578125 0.35595703125 6.99755859375 0.347900390625 Q 6.97119140625 0.33984375 6.9451904296875 0.3262939453125 Q 6.919189453125 0.312744140625 6.8990478515625 0.29296875 Q 6.87890625 0.273193359375 6.8660888671875 0.2457275390625 Q 6.853271484375 0.21826171875 6.853271484375 0.181640625 M 7.307373046875 1.103759765625 Q 7.307373046875 1.133056640625 7.3154296875 1.149169921875 Q 7.323486328125 1.165283203125 7.3355712890625 1.1737060546875 Q 7.34765625 1.18212890625 7.361572265625 1.18505859375 Q 7.37548828125 1.18798828125 7.3875732421875 1.191650390625 Q 7.399658203125 1.1953125 7.40771484375 1.2022705078125 Q 7.415771484375 1.209228515625 7.415771484375 1.225341796875 Q 7.415771484375 1.308837890625 7.329345703125 1.3458251953125 Q 7.242919921875 1.3828125 7.07958984375 1.3828125 Q 7.00048828125 1.3828125 6.939697265625 1.3740234375 Q 6.87890625 1.365234375 6.837158203125 1.3458251953125 Q 6.79541015625 1.326416015625 6.7738037109375 1.2967529296875 Q 6.752197265625 1.26708984375 6.752197265625 1.225341796875 Q 6.752197265625 1.209228515625 6.76025390625 1.2022705078125 Q 6.768310546875 1.1953125 6.780029296875 1.191650390625 Q 6.791748046875 1.18798828125 6.8056640625 1.18505859375 Q 6.819580078125 1.18212890625 6.831298828125 1.1737060546875 Q 6.843017578125 1.165283203125 6.85107421875 1.1495361328125 Q 6.859130859375 1.1337890625 6.859130859375 1.103759765625 L 6.859130859375 0.712646484375 Q 6.859130859375 0.683349609375 6.85107421875 0.667236328125 Q 6.843017578125 0.651123046875 6.831298828125 0.6427001953125 Q 6.819580078125 0.63427734375 6.8056640625 0.63134765625 Q 6.791748046875 0.62841796875 6.780029296875 0.624755859375 Q 6.768310546875 0.62109375 6.76025390625 0.6141357421875 Q 6.752197265625 0.607177734375 6.752197265625 0.591064453125 Q 6.752197265625 0.54931640625 6.7738037109375 0.5196533203125 Q 6.79541015625 0.489990234375 6.837158203125 0.4705810546875 Q 6.87890625 0.451171875 6.939697265625 0.4423828125 Q 7.00048828125 0.43359375 7.07958984375 0.43359375 Q 7.15869140625 0.43359375 7.2041015625 0.441650390625 Q 7.24951171875 0.44970703125 7.2725830078125 0.4691162109375 Q 7.295654296875 0.488525390625 7.301513671875 0.521484375 Q 7.307373046875 0.554443359375 7.307373046875 0.604248046875 L 7.307373046875 1.103759765625 M 8.032470703125 0.599853515625 Q 8.009033203125 0.599853515625 7.988525390625 0.6104736328125 Q 7.968017578125 0.62109375 7.9530029296875 0.64306640625 Q 7.93798828125 0.6650390625 7.9295654296875 0.6990966796875 Q 7.921142578125 0.733154296875 7.921142578125 0.780029296875 L 8.15478515625 0.780029296875 Q 8.15478515625 0.728759765625 8.146728515625 0.6939697265625 Q 8.138671875 0.6591796875 8.123291015625 0.6383056640625 Q 8.10791015625 0.617431640625 8.0848388671875 0.608642578125 Q 8.061767578125 0.599853515625 8.032470703125 0.599853515625 M 7.978271484375 0.412353515625 Q 8.076416015625 0.412353515625 8.1551513671875 0.441650390625 Q 8.23388671875 0.470947265625 8.2891845703125 0.522216796875 Q 8.344482421875 0.573486328125 8.3741455078125 0.6427001953125 Q 8.40380859375 0.7119140625 8.40380859375 0.791748046875 Q 8.40380859375 0.82470703125 8.3946533203125 0.843017578125 Q 8.385498046875 0.861328125 8.36865234375 0.8701171875 Q 8.351806640625 0.87890625 8.326904296875 0.881103515625 Q 8.302001953125 0.88330078125 8.2705078125 0.88330078125 L 7.918212890625 0.88330078125 Q 7.918212890625 0.9638671875 7.9346923828125 1.0140380859375 Q 7.951171875 1.064208984375 7.98046875 1.092041015625 Q 8.009765625 1.119873046875 8.05078125 1.1297607421875 Q 8.091796875 1.1396484375 8.1416015625 1.1396484375 Q 8.16796875 1.1396484375 8.1961669921875 1.134521484375 Q 8.224365234375 1.12939453125 8.2503662109375 1.121337890625 Q 8.2763671875 1.11328125 8.29833984375 1.1044921875 Q 8.3203125 1.095703125 8.3349609375 1.087646484375 Q 8.3466796875 1.0810546875 8.357666015625 1.0810546875 Q 8.37451171875 1.0810546875 8.384033203125 1.0953369140625 Q 8.3935546875 1.109619140625 8.3935546875 1.127197265625 Q 8.3935546875 1.133056640625 8.392822265625 1.13818359375 Q 8.39208984375 1.143310546875 8.389892578125 1.1484375 Q 8.36865234375 1.20263671875 8.33203125 1.248779296875 Q 8.29541015625 1.294921875 8.2430419921875 1.3289794921875 Q 8.190673828125 1.363037109375 8.121826171875 1.382080078125 Q 8.052978515625 1.401123046875 7.96728515625 1.401123046875 Q 7.88525390625 1.401123046875 7.8175048828125 1.3817138671875 Q 7.749755859375 1.3623046875 7.6951904296875 1.3275146484375 Q 7.640625 1.292724609375 7.599609375 1.245849609375 Q 7.55859375 1.198974609375 7.531494140625 1.1436767578125 Q 7.50439453125 1.08837890625 7.4908447265625 1.0279541015625 Q 7.477294921875 0.967529296875 7.477294921875 0.906005859375 Q 7.477294921875 0.84375 7.4912109375 0.7825927734375 Q 7.505126953125 0.721435546875 7.532958984375 0.66650390625 Q 7.560791015625 0.611572265625 7.6025390625 0.5650634765625 Q 7.644287109375 0.5185546875 7.699951171875 0.4844970703125 Q 7.755615234375 0.450439453125 7.8251953125 0.431396484375 Q 7.894775390625 0.412353515625 7.978271484375 0.412353515625 M 9.0087890625 1.100830078125 Q 9.0087890625 1.130859375 9.016845703125 1.147705078125 Q 9.02490234375 1.16455078125 9.0369873046875 1.1729736328125 Q 9.049072265625 1.181396484375 9.06298828125 1.1846923828125 Q 9.076904296875 1.18798828125 9.0889892578125 1.191650390625 Q 9.10107421875 1.1953125 9.109130859375 1.2022705078125 Q 9.1171875 1.209228515625 9.1171875 1.225341796875 Q 9.1171875 1.308837890625 9.03076171875 1.3458251953125 Q 8.9443359375 1.3828125 8.781005859375 1.3828125 Q 8.701904296875 1.3828125 8.64111328125 1.3740234375 Q 8.580322265625 1.365234375 8.53857421875 1.3458251953125 Q 8.496826171875 1.326416015625 8.4752197265625 1.2967529296875 Q 8.45361328125 1.26708984375 8.45361328125 1.225341796875 Q 8.45361328125 1.209228515625 8.461669921875 1.2022705078125 Q 8.4697265625 1.1953125 8.4814453125 1.191650390625 Q 8.4931640625 1.18798828125 8.507080078125 1.18505859375 Q 8.52099609375 1.18212890625 8.53271484375 1.1737060546875 Q 8.54443359375 1.165283203125 8.552490234375 1.1495361328125 Q 8.560546875 1.1337890625 8.560546875 1.103759765625 L 8.560546875 0.712646484375 Q 8.560546875 0.683349609375 8.552490234375 0.667236328125 Q 8.54443359375 0.651123046875 8.53271484375 0.6427001953125 Q 8.52099609375 0.63427734375 8.507080078125 0.63134765625 Q 8.4931640625 0.62841796875 8.4814453125 0.624755859375 Q 8.4697265625 0.62109375 8.461669921875 0.6141357421875 Q 8.45361328125 0.607177734375 8.45361328125 0.591064453125 Q 8.45361328125 0.54931640625 8.4752197265625 0.5196533203125 Q 8.496826171875 0.489990234375 8.53857421875 0.4705810546875 Q 8.580322265625 0.451171875 8.64111328125 0.4423828125 Q 8.701904296875 0.43359375 8.781005859375 0.43359375 Q 8.853515625 0.43359375 8.8970947265625 0.4478759765625 Q 8.940673828125 0.462158203125 8.965576171875 0.489990234375 Q 8.986083984375 0.476806640625 9.008056640625 0.4647216796875 Q 9.030029296875 0.45263671875 9.054931640625 0.4434814453125 Q 9.079833984375 0.434326171875 9.109130859375 0.42919921875 Q 9.138427734375 0.424072265625 9.173583984375 0.424072265625 Q 9.217529296875 0.424072265625 9.2581787109375 0.4332275390625 Q 9.298828125 0.4423828125 9.330322265625 0.4632568359375 Q 9.36181640625 0.484130859375 9.3804931640625 0.5174560546875 Q 9.399169921875 0.55078125 9.399169921875 0.599853515625 Q 9.399169921875 0.632080078125 9.38818359375 0.662841796875 Q 9.377197265625 0.693603515625 9.3555908203125 0.7174072265625 Q 9.333984375 0.7412109375 9.3013916015625 0.755859375 Q 9.268798828125 0.7705078125 9.226318359375 0.7705078125 Q 9.183837890625 0.7705078125 9.15966796875 0.758056640625 Q 9.135498046875 0.74560546875 9.122314453125 0.727294921875 Q 9.109130859375 0.708984375 9.1029052734375 0.6873779296875 Q 9.0966796875 0.665771484375 9.0897216796875 0.6474609375 Q 9.082763671875 0.629150390625 9.0714111328125 0.61669921875 Q 9.06005859375 0.604248046875 9.037353515625 0.604248046875 Q 9.0146484375 0.604248046875 9.00732421875 0.6097412109375 Q 9 0.615234375 9 0.62548828125 Q 9 0.638671875 9.005126953125 0.6591796875 Q 9.01025390625 0.6796875 9.01025390625 0.708984375 L 9.0087890625 1.100830078125" fill="#390c14" fill-rule="nonzero"></path></g><g></g><g clip-path="url(&quot;#SvgjsClipPath1002&quot;)"><g clip-path="url(&quot;#a8ce4faa5-5865-4556-94fa-2cf1bd6e9b78020baa5a-8335-4adb-aa6f-60897203ca3d&quot;)"><path d=" M 11.503681443205236 0.829754993592994 L 11.503681443205236 0.8230960372182894 C 11.503681443205236 0.8230960372182894 11.478394788125742 0.48656720004803433 11.179811940681397 0.26032732783382473 C 11.175823884391052 0.321698574806463 11.165574762663226 0.4284568293770197 11.139798747465537 0.5284097768833177 C 11.057956697791541 0.351069328816321 10.926076432667239 0.19637207649874933 10.89388385442442 0.1617967260916291 C 10.798838228477226 0.05971712012775032 10.677239099294091 -0.05867144080329645 10.623450647423967 -0.2084156369712768 C 10.597770674866297 -0.26927922998952497 10.578731364847139 -0.3617499984923773 10.630292542160614 -0.4616572114081898 L 10.62318538679915 -0.4616572114081898 C 10.62318538679915 -0.4616572114081898 10.595749205966833 -0.4375413618451283 10.56178669907222 -0.395781107272719 C 10.529237391023612 -0.3557587671387628 10.490719718916633 -0.2995326615957552 10.464431476305505 -0.23245831118956145 C 10.436012001777748 -0.1599461179746287 10.421495842757615 -0.10626742912166981 10.444971408053878 -0.0155757361887075 C 10.448877142081349 -0.0004878947875051054 10.48573922201275 0.09852749361383784 10.494666614075541 0.12267535739023938 C 10.538516939433142 0.2302888488028768 10.538516939433142 0.29580364967351136 10.485899293079449 0.3767584482920875 C 10.415294232287767 0.16261537526132153 10.201256348815118 0.01883954315171321 10.201256348815118 0.01883954315171321 C 10.245403949010875 0.08977846645394094 10.25482984810996 0.3436145905671668 10.161316330944034 0.4745710169636589 C 10.089197455207279 0.5755621396739803 10.081765584253366 0.6552455166770565 10.086832976879172 0.7018444909228434 C 10.069472126330835 0.683674138122911 10.054631251718256 0.6631850415853582 10.043563480820739 0.6394716564185701 C 10.013058508966838 0.574098632778441 10.01561964603403 0.5197476454453434 10.046147485183175 0.4579510667811888 C 10.011677324334173 0.47027196545801175 9.89285885825256 0.6221016589521358 9.848171589889072 0.7765290771858424 C 9.772499136471584 1.037993730992068 9.826447659408407 1.3365308438459276 9.991041877107065 1.542953918002723 C 10.140589414535958 1.7305069001251563 10.388566937607976 1.8315574778031083 10.640829791808498 1.8433021206398128 L 10.683655662339222 1.8444454854019532 C 10.890728167680912 1.8457809354441332 11.039662861597296 1.7919513224425714 11.193358526383234 1.6712714585281954 C 11.50754601610127 1.3962099109705985 11.508382959107156 0.966089807830594 11.503681443205236 0.829754993592994" fill="#cb3021" transform="matrix(1,0,0,1,0,0)" fill-rule="nonzero"></path></g><g clip-path="url(&quot;#a8ce4faa5-5865-4556-94fa-2cf1bd6e9b78020baa5a-8335-4adb-aa6f-60897203ca3d&quot;)"><path d=" M 10.17966504864686 1.5470288700149908 C 10.185817997180497 1.5475678727461042 10.191932988051661 1.545640009091679 10.19666424834448 1.541669558784308 C 10.2013955086373 1.5376991084769362 10.204355303705068 1.5320114565201721 10.204892248758723 1.5258583280792026 C 10.205712940288311 1.516474886981455 10.20080029808904 1.5075210464025883 10.192445130416106 1.5031720609371295 C 10.18408996274317 1.4988230754716705 10.17393772216914 1.4999354269524596 10.166722487744014 1.505990416102914 C 10.159507253318887 1.512045405253368 10.156649981091816 1.5218505727639324 10.15948304222675 1.5308336828059703 C 10.162316103361682 1.5398167928480087 10.170281559596315 1.5462087269421612 10.17966504864686 1.5470288700149908" fill="#de3b4c" transform="matrix(1,0,0,1,0,0)" fill-rule="nonzero"></path></g><g clip-path="url(&quot;#a8ce4faa5-5865-4556-94fa-2cf1bd6e9b78020baa5a-8335-4adb-aa6f-60897203ca3d&quot;)"><path d=" M 10.338812276618683 1.6481617699558173 L 10.433711551876321 1.5361669047746584 C 10.398715443236734 1.5073541127687249 10.365169121115539 1.4771326953758346 10.332734149543144 1.4459645719598924 C 10.316111149027613 1.429976428014789 10.299761710057751 1.4137062738370956 10.28369294816543 1.397161190452701 C 10.267658400741173 1.380655576746443 10.251847952810298 1.3639304370058558 10.236563452670007 1.3467753921147039 C 10.254267312646986 1.361396740692953 10.272387357397385 1.3754738476444233 10.29067662013258 1.3892811205120288 C 10.30893605176291 1.4030655493381583 10.327424554270895 1.4165438902725622 10.346134384555429 1.4297104985013074 C 10.383540706113608 1.4559850207352893 10.421646766906218 1.4809378133042375 10.460681239885684 1.5039926203680327 L 10.459149131104416 1.5061787337932449 L 10.565779328821613 1.3803857426625779 C 10.526950661499331 1.3488517425227506 10.489690690630706 1.3157536193883155 10.453660980246143 1.2815853068365173 C 10.43523049335656 1.2641135046782033 10.417097177919828 1.2463308713696521 10.39926883178162 1.2282450539531629 C 10.381478076082708 1.2101707437932392 10.36392514025433 1.1918769075989957 10.346953033725121 1.1730982847456048 C 10.366367367386262 1.1893386378270443 10.386216179657016 1.2049798677731227 10.406243356830664 1.220360410553433 C 10.426263407503406 1.235695241015426 10.446538869899248 1.250693716243874 10.467061215258427 1.2653495272141262 C 10.508062275628776 1.2946105182068186 10.54993229321835 1.3224400165173118 10.592776457585268 1.3481931644197578 L 10.591518756346915 1.3499905338258424 L 10.697842532307858 1.2245634194190602 C 10.655199600139076 1.1903447988177278 10.61422140706397 1.1543882637779421 10.57459238440819 1.1172426293855307 C 10.554356582285415 1.0982739863256459 10.534439432063884 1.0789682406236618 10.514849288856853 1.059333490912666 C 10.49530232488329 1.0396859108400351 10.476006901157412 1.019818804733087 10.457342614780234 0.9994211773765054 C 10.478453701748393 1.0172713880430384 10.500045001916648 1.0344996082789675 10.521819240446845 1.0514259802176913 C 10.543594122933216 1.0683212339676948 10.565655113657684 1.0848444875775543 10.58799261942047 1.1009885559269437 C 10.63262500627538 1.1332451625964453 10.678204099153337 1.1639467931894345 10.724903689498191 1.1923708411762406 L 10.723888381589411 1.1938206276946342 L 10.829924029630295 1.068736522716494 C 10.783434818401673 1.031824134735559 10.738770417333429 0.9929954674132773 10.695528362029286 0.952899951934544 C 10.67348949530149 0.9324273491306831 10.651788551239642 0.911593954929806 10.630434319391135 0.8904082074950237 C 10.609122000224826 0.8692056513458801 10.588106955896688 0.8477561284081296 10.567741342753447 0.825734923089309 C 10.590526315733376 0.8452224320952268 10.613860103799134 0.8640330691619578 10.637399697522076 0.8825144171771921 C 10.660939322059448 0.9009546317539061 10.68478718016193 0.9189979507734549 10.70893317050061 0.9366367315578554 C 10.757187736921983 0.9718798069860719 10.806462184711178 1.0054444229434603 10.85701720103397 1.0365668117689169 L 10.856262580290958 1.0376507215634256 L 10.96198723311654 0.9129141994729764 C 10.911697477418564 0.8733400583257791 10.863305707225742 0.8316301118029039 10.816468913109428 0.788552701024509 C 10.792608659185685 0.7665986028571146 10.769120602735121 0.7442434010604138 10.74601477646637 0.7214966444545288 C 10.722946249025409 0.6987391122288704 10.700188716799769 0.6757025990012693 10.67813092380856 0.6520578157202097 C 10.702612650095507 0.6731871965245608 10.727670632222571 0.6935573831268511 10.752984728056356 0.7135891337595477 C 10.778286367879597 0.7335808961102954 10.803916478880296 0.7531533967001804 10.829864574662668 0.7722986275659263 C 10.881741320650491 0.8105098779166497 10.934747711023311 0.8469466261565344 10.989130712569748 0.8807673558206419 L 10.988641352451552 0.8814716685141202 L 11.078098211441404 0.7759345275095295 C 11.078098211441404 0.7759345275095295 11.016114120956257 0.6196914460335443 10.880940965316992 0.5250437110235767 C 10.745799823891067 0.4304142698498037 10.57777093844694 0.42559841747166904 10.57777093844694 0.42559841747166904 L 10.576517810667635 0.42775709014258967 C 10.627850315028681 0.4680126766880227 10.677129336276925 0.510458950117716 10.724839661071512 0.5543458631477063 C 10.74870110136876 0.5762986935378778 10.772189179077358 0.5986539155673147 10.7952937977146 0.621401919717711 C 10.818366898614581 0.6441457315661991 10.841129004299269 0.6672005386299946 10.863173076913332 0.690836174992957 C 10.838705071003533 0.6697159411067029 10.813633368499321 0.6493366075863156 10.788328419583634 0.6292911365764733 C 10.763028768781782 0.6092973131147135 10.737395498096738 0.5897293024097501 10.711439426059254 0.5705953631472622 C 10.660696897915447 0.5331936150481121 10.608824725386668 0.497534354846483 10.555662837406196 0.46431274831773683 L 10.475956593107878 0.6039724672836402 C 10.499913066226902 0.6229192745159751 10.523440316830586 0.6424025644870208 10.546520492768124 0.6624075535471032 C 10.569480989742138 0.6823122586276873 10.592065663281257 0.7026463935397658 10.6142625681954 0.7233992034187038 C 10.636431544188103 0.74414796294679 10.658245533678876 0.7652727846700478 10.679695046803161 0.7867644785365147 C 10.701085114773287 0.8082780299009518 10.72217790790525 0.8300705622673443 10.742557241425637 0.852443923932904 C 10.719731107314269 0.8325722443669072 10.696324143903736 0.8134368917077284 10.672661066786482 0.7946216811819489 C 10.649015454466676 0.7758482303628502 10.62503914552599 0.7574951091724509 10.600743423247867 0.7395709546144258 C 10.576494481617402 0.7216575174497124 10.551906144846358 0.7042081235511735 10.52699182263078 0.6872322892626992 C 10.503357982905921 0.6711568298292558 10.47938930243406 0.6555792460325423 10.45510161984644 0.6405098316225926 L 10.375381655170976 0.7801832709656422 C 10.397664171842017 0.7979377847791989 10.419513418486552 0.8162293616567255 10.440910176418747 0.8350419122531232 C 10.462204837817858 0.8537590475883146 10.483123439812163 0.8728997437640205 10.503653461105962 0.8924525436897146 C 10.524161755446986 0.9119800584892079 10.544308218250178 0.9318840867517431 10.564082575514595 0.9521544781096254 C 10.583817051309138 0.9724103282357044 10.603249678806472 0.9929588797408886 10.62194597939699 1.014074540168094 C 10.600770864002152 0.9954376945452084 10.579001198931003 0.9775143085338984 10.556993713989328 0.9599247850331332 C 10.535003234287068 0.9423769118739482 10.51268539880032 0.9252432425862132 10.490051993895534 0.9085328257044487 C 10.467479429978907 0.8918435255202268 10.444570840290094 0.8756135582247193 10.421340345149968 0.8598529275915752 C 10.399401329407558 0.8449675661685041 10.377127426362726 0.8305818605941258 10.354535828827633 0.8167069149274484 L 10.274825011070268 0.9563849277295475 C 10.295395253147024 0.9729698231312252 10.31554911730972 0.990064618626368 10.335267845856052 1.0076534036639175 C 10.35490584644514 1.0251932388863503 10.374172009222193 1.0431450025883076 10.393053500934606 1.0614967370426138 C 10.41189489508318 1.0798027709242535 10.430373732151429 1.098478304913189 10.448479251144116 1.1175124634693874 C 10.466521547090696 1.1365380531114089 10.484289435494356 1.1558426237553845 10.501325570450245 1.1756822891080416 C 10.48179690031289 1.1582939978054132 10.461659960122077 1.1415917253600687 10.441317214274077 1.1252507561795606 C 10.420987112917988 1.108927361480754 10.400335412591257 1.0930085966098835 10.379374284920363 1.0775038437125808 C 10.358469502935296 1.0620366818360691 10.337236171228087 1.0470185788569446 10.315688867669165 1.0324598455433132 C 10.295435130747753 1.0187844947634028 10.274864180112727 1.005584928514568 10.253992905104075 0.9928719840189681 L 10.174254646592413 1.1325957314115496 C 10.193143601500516 1.1479865009922559 10.21161043536083 1.1638882002788606 10.229634662211438 1.1802831889108953 C 10.247620289475408 1.1966261983317474 10.265228176505925 1.213380147825493 10.282444393845164 1.2305317834774274 C 10.299614896466501 1.2476262222164403 10.316424539351068 1.2650793401824028 10.332862206396504 1.2828795957472592 C 10.349253483626548 1.3006703514461617 10.365338339100335 1.3187126473927344 10.380728028798742 1.33728546458894 C 10.362804642787433 1.321132007229423 10.344327868231247 1.3056782891043361 10.325649861476924 1.2905492865716965 C 10.306973111097596 1.2754581151302449 10.287978311266334 1.260764859035356 10.268678282109015 1.2464794351797737 C 10.249450559571216 1.2322343783463474 10.229901597990079 1.2184281148396696 10.210046537106447 1.2050713369540909 C 10.191486983935429 1.1925920529893907 10.172610696470917 1.1805904063303418 10.153436261003371 1.1690782142419236 L 10.073693429032657 1.3088111085526 C 10.090881753080389 1.323017016830991 10.107655084247842 1.3377177023304536 10.12399233164873 1.3528946803216781 C 10.140322802444443 1.3680594413817793 10.156278315041357 1.3836230427928569 10.17184443367382 1.3995714033712894 C 10.187343202369163 1.4154596515523148 10.202482142015198 1.4316949749217078 10.217249735107933 1.4482650218613173 C 10.231967126326204 1.4648026497809146 10.246400963083461 1.4816101117843758 10.260103046392949 1.4989023604469844 C 10.24383067909817 1.4839883104896274 10.227004923258514 1.4697694263076515 10.209968788302625 1.4558752577181235 C 10.192952206292642 1.4420024810789882 10.175620356578753 1.4285209675016088 10.157986852756684 1.4154413062697973 C 10.140438590557833 1.4024113716366355 10.122572299058554 1.3898153006410694 10.104404206543753 1.3776645345286913 C 10.08753107789134 1.3663943556163476 10.070352840104741 1.355587804395126 10.052888763820755 1.3452570037105827 L 10.011005025854033 1.418629007226644 C 10.011005025854033 1.418629007226644 10.072101865283758 1.558220124306819 10.338812276618683 1.6481617699558173" fill="#931a15" transform="matrix(1,0,0,1,0,0)" fill-rule="nonzero"></path></g><g clip-path="url(&quot;#a8ce4faa5-5865-4556-94fa-2cf1bd6e9b78020baa5a-8335-4adb-aa6f-60897203ca3d&quot;)"><path d=" M 10.856971466443484 0.5592714785430066 C 10.851889057262884 0.5557127573209342 10.84842856322294 0.5502807603866424 10.847351296880218 0.5441705331369973 C 10.846274030537495 0.5380603058873522 10.847668241529071 0.5317723980154427 10.851227201878492 0.5266901562810589 L 10.946272827825684 0.3909544651788205 L 10.965431047780106 0.4043729940272982 C 11.004035615609007 0.43140671046334145 11.057398735787617 0.42198538482330605 11.084409584928416 0.3834128312077436 C 11.111425007528267 0.344831130674084 11.102021975724425 0.29146801049547577 11.063417407895523 0.26443429405943253 C 11.02484485427996 0.23742801837768035 10.9714863075604 0.24684477055866727 10.944470884960552 0.2854264710923268 C 10.93700449216832 0.29586702895028105 10.922522740625645 0.2983471042763297 10.912007713378863 0.29098595818943507 C 10.90149268613208 0.2836248121025404 10.89886727415422 0.2691687022069583 10.906122430838368 0.2585802664772745 C 10.947942140378409 0.19885089130306943 11.030543384254466 0.18428442423340297 11.090259039051526 0.22609956031439504 C 11.149997561143827 0.2679284167725329 11.164573175131592 0.3505388075666881 11.12275346559155 0.41026360928184447 C 11.085520935477216 0.46343921763946183 11.015922035676217 0.48080921510589614 10.958955029767344 0.45445237060903976 L 10.889571082541627 0.5535409343551598 C 10.886010003344165 0.5586263714846469 10.880573486776418 0.5620876985194005 10.874458942208488 0.5631625476136228 C 10.868344397640557 0.5642373967078453 10.862053366083893 0.5628376041568017 10.856971466443484 0.5592714785430066" fill="#bb9092" transform="matrix(1,0,0,1,0,0)" fill-rule="nonzero"></path></g><g clip-path="url(&quot;#a8ce4faa5-5865-4556-94fa-2cf1bd6e9b78020baa5a-8335-4adb-aa6f-60897203ca3d&quot;)"><path d=" M 10.163438415942567 1.50895939689477 L 10.040201988420046 1.6849598214605384 C 10.040654760865854 1.6903290623835487 10.029079336013945 1.7416249790722076 10.029079336013945 1.7416249790722076 C 10.029079336013945 1.7416249790722076 10.073359566522113 1.7132237983806444 10.07854586908318 1.7118060260755907 L 10.201782296605701 1.5358101749688708 Z" fill="#bb9092" transform="matrix(1,0,0,1,0,0)" fill-rule="nonzero"></path></g><g clip-path="url(&quot;#a8ce4faa5-5865-4556-94fa-2cf1bd6e9b78020baa5a-8335-4adb-aa6f-60897203ca3d&quot;)"><path d=" M 10.339470854721675 1.649478926161803 C 10.339470854721675 1.649478926161803 10.100676837419167 1.5805386044637961 10.010748912147314 1.4215331537224805 L 10.086471673614335 1.41295334454738 L 10.309683915938399 1.551995646541728 Z" fill="#931a15" transform="matrix(1,0,0,1,0,0)" fill-rule="nonzero"></path></g><g clip-path="url(&quot;#SvgjsClipPath1000020baa5a-8335-4adb-aa6f-60897203ca3d&quot;)"><path d=" M 10.702324454876829 1.3843372043174258 L 10.843475121492563 1.6137373367341907" fill="none" transform="matrix(1,0,0,1,0,0)" fill-rule="nonzero" stroke-dasharray="none" stroke-miterlimit="4" stroke-linejoin="miter" stroke-linecap="round" stroke-width="0.03658767238848702" stroke="#bb9092"></path></g><g clip-path="url(&quot;#SvgjsClipPath1000020baa5a-8335-4adb-aa6f-60897203ca3d&quot;)"><path d=" M 10.885251840490106 1.2101222799728095 L 11.109333040033395 1.3775657626587205" fill="none" transform="matrix(1,0,0,1,0,0)" fill-rule="nonzero" stroke-dasharray="none" stroke-miterlimit="4" stroke-linejoin="miter" stroke-linecap="round" stroke-width="0.03658767238848702" stroke="#bb9092"></path></g><g clip-path="url(&quot;#SvgjsClipPath1000020baa5a-8335-4adb-aa6f-60897203ca3d&quot;)"><path d=" M 10.989530397587973 0.997884665406495 L 11.263498888432965 1.0333061057375992" fill="none" transform="matrix(1,0,0,1,0,0)" fill-rule="nonzero" stroke-dasharray="none" stroke-miterlimit="4" stroke-linejoin="miter" stroke-linecap="round" stroke-width="0.03658767238848702" stroke="#bb9092"></path></g></g></g><defs><clipPath id="SvgjsClipPath1002"><path d=" M 9.81455078125 -0.4616572114081898 h 1.6900725372712309 v 2.3061269228163797 h -1.6900725372712309 Z"></path></clipPath><clipPath id="a8ce4faa5-5865-4556-94fa-2cf1bd6e9b78020baa5a-8335-4adb-aa6f-60897203ca3d"><path d=" M 9.814552092423101 1.844468352697196 L 11.504623575769239 1.844468352697196 L 11.504623575769239 -0.46165721140818955 L 9.814552092423101 -0.46165721140818955 Z"></path></clipPath><clipPath id="SvgjsClipPath1000020baa5a-8335-4adb-aa6f-60897203ca3d"><path d=" M 9.81455078125 -0.4616572114081898 L 11.504623318521231 -0.4616572114081898 L 11.504623318521231 1.8444697114081898 L 9.81455078125 1.8444697114081898 Z"></path></clipPath></defs></svg>